# xmcd
#
# Track frame offsets:
#  150
#  17556
#  35200
#  64052
#  77439
#  100363
#  117561
#  134071
#  146945
#  171579
#  187175
#  205852
#  221547
#
# Disc length: 3091 seconds
#
# Revision: 0
# Processed by: cddbd v1.4PL0 Copyright (c) Steve Scherf et al.
# Submitted via: AltoMP3_Maker 3.0
#
DISCID=d10c110d
DTITLE=Black Rose-Matter Of Time - Black Rose-Matter Of Time
DYEAR=1900
DGENRE=
TTITLE0=The Rope
TTITLE1=Tear My Stillhouse Down
TTITLE2=The Old Buck Dancers Gone/Temperance Reel
TTITLE3=Fallen Bird
TTITLE4=Kitty O'Dwyer/Rueben and Sally
TTITLE5=One More Dollar
TTITLE6=Down In The Valley To Pray
TTITLE7=Roosevelt In Trinidad
TTITLE8=This Old House
TTITLE9=Restless
TTITLE10=Wind In The Willows
TTITLE11=Matter Of Time
TTITLE12=Two Roads
EXTD=
EXTT0=
EXTT1=
EXTT2=
EXTT3=
EXTT4=
EXTT5=
EXTT6=
EXTT7=
EXTT8=
EXTT9=
EXTT10=
EXTT11=
EXTT12=
PLAYORDER=
